<svg width="83" height="94" viewBox="0 0 83 94" fill="none" xmlns="http://www.w3.org/2000/svg">
<g clip-path="url(#clip0_637_167)" filter="url(#filter0_di_637_167)">
<path d="M71.7678 35.0622L23.7712 33.7034L41.2378 0L71.7678 35.0622Z" fill="url(#paint0_linear_637_167)"/>
<path d="M41.238 0L23.7714 33.7034L4 21.5L41.238 0Z" fill="url(#paint1_linear_637_167)"/>
<path d="M41.238 0L71.768 35.0622L78.476 21.5L41.238 0Z" fill="url(#paint2_linear_637_167)"/>
<path d="M78.4761 21.5V64.5L71.7681 35.0622L78.4761 21.5Z" fill="url(#paint3_linear_637_167)"/>
<path d="M71.7682 35.0619L78.4762 64.4997L43.6462 74.7681L71.7682 35.0619Z" fill="url(#paint4_linear_637_167)"/>
<path d="M23.7712 33.7033L43.6458 74.7683L71.7678 35.0621L23.7712 33.7033Z" fill="url(#paint5_linear_637_167)"/>
<path d="M23.7714 33.7033L4 64.4999L43.646 74.7683L23.7714 33.7033Z" fill="url(#paint6_linear_637_167)"/>
<path d="M4 21.5V64.5L23.7714 33.7034L4 21.5Z" fill="url(#paint7_linear_637_167)"/>
<path d="M4 64.5L43.646 74.7684L41.238 86L4 64.5Z" fill="url(#paint8_linear_637_167)"/>
<path d="M43.646 74.7684L78.476 64.5L41.238 86L43.646 74.7684Z" fill="url(#paint9_linear_637_167)"/>
</g>
<defs>
<filter id="filter0_di_637_167" x="0" y="0" width="82.4761" height="94" filterUnits="userSpaceOnUse" color-interpolation-filters="sRGB">
<feFlood flood-opacity="0" result="BackgroundImageFix"/>
<feColorMatrix in="SourceAlpha" type="matrix" values="0 0 0 0 0 0 0 0 0 0 0 0 0 0 0 0 0 0 127 0" result="hardAlpha"/>
<feOffset dy="4"/>
<feGaussianBlur stdDeviation="2"/>
<feColorMatrix type="matrix" values="0 0 0 0 0 0 0 0 0 0 0 0 0 0 0 0 0 0 0.25 0"/>
<feBlend mode="normal" in2="BackgroundImageFix" result="effect1_dropShadow_637_167"/>
<feBlend mode="normal" in="SourceGraphic" in2="effect1_dropShadow_637_167" result="shape"/>
<feColorMatrix in="SourceAlpha" type="matrix" values="0 0 0 0 0 0 0 0 0 0 0 0 0 0 0 0 0 0 127 0" result="hardAlpha"/>
<feOffset/>
<feGaussianBlur stdDeviation="0.65"/>
<feComposite in2="hardAlpha" operator="arithmetic" k2="-1" k3="1"/>
<feColorMatrix type="matrix" values="0 0 0 0 0.878431 0 0 0 0 0.901961 0 0 0 0 0.945098 0 0 0 1 0"/>
<feBlend mode="normal" in2="shape" result="effect2_innerShadow_637_167"/>
</filter>
<linearGradient id="paint0_linear_637_167" x1="23.7712" y1="17.5354" x2="71.7678" y2="17.5354" gradientUnits="userSpaceOnUse">
<stop stop-color="#ACBBD3"/>
<stop offset="1" stop-color="#C1CCE1"/>
</linearGradient>
<linearGradient id="paint1_linear_637_167" x1="4" y1="16.8474" x2="41.238" y2="16.8474" gradientUnits="userSpaceOnUse">
<stop stop-color="#ACB9CD"/>
<stop offset="1" stop-color="#8593B1"/>
</linearGradient>
<linearGradient id="paint2_linear_637_167" x1="41.238" y1="17.5354" x2="78.476" y2="17.5354" gradientUnits="userSpaceOnUse">
<stop stop-color="#E6ECF4"/>
<stop offset="1" stop-color="#C2CDE5"/>
</linearGradient>
<linearGradient id="paint3_linear_637_167" x1="71.7681" y1="43" x2="78.4761" y2="43" gradientUnits="userSpaceOnUse">
<stop stop-color="#D2DCEE"/>
<stop offset="1" stop-color="#ACBBDA"/>
</linearGradient>
<linearGradient id="paint4_linear_637_167" x1="43.6462" y1="54.9193" x2="78.4762" y2="54.9193" gradientUnits="userSpaceOnUse">
<stop stop-color="#98ABC4"/>
<stop offset="1" stop-color="#798FAB"/>
</linearGradient>
<linearGradient id="paint5_linear_637_167" x1="26.3267" y1="24.8075" x2="66.8459" y2="61.1921" gradientUnits="userSpaceOnUse">
<stop stop-color="#637794"/>
<stop offset="1" stop-color="#ACBBDA"/>
</linearGradient>
<linearGradient id="paint6_linear_637_167" x1="4" y1="54.2315" x2="43.646" y2="54.2315" gradientUnits="userSpaceOnUse">
<stop stop-color="#49657F"/>
<stop offset="1" stop-color="#5B748F"/>
</linearGradient>
<linearGradient id="paint7_linear_637_167" x1="12.5" y1="24.5" x2="0.508397" y2="64.6634" gradientUnits="userSpaceOnUse">
<stop stop-color="#344B61"/>
<stop offset="1" stop-color="#607F9E"/>
</linearGradient>
<linearGradient id="paint8_linear_637_167" x1="50.4658" y1="69.8406" x2="2.6326" y2="79.1286" gradientUnits="userSpaceOnUse">
<stop stop-color="#14344D"/>
<stop offset="1" stop-color="#6A88A6"/>
</linearGradient>
<linearGradient id="paint9_linear_637_167" x1="69.7556" y1="78.3116" x2="31.305" y2="66.4092" gradientUnits="userSpaceOnUse">
<stop stop-color="#14344D"/>
<stop offset="1" stop-color="#607F9E"/>
</linearGradient>
<clipPath id="clip0_637_167">
<rect width="74.476" height="86" fill="white" transform="translate(4)"/>
</clipPath>
</defs>
</svg>
