<svg width="16" height="15" viewBox="0 0 16 15" fill="none" xmlns="http://www.w3.org/2000/svg">
<path d="M10.6412 5.14058H14.3326L11.9804 2.78685C11.2231 2.02954 10.2797 1.48494 9.24522 1.2078C8.21071 0.930654 7.12147 0.930735 6.087 1.20803C5.05253 1.48533 4.10929 2.03007 3.3521 2.78749C2.59492 3.54492 2.05047 4.48833 1.77349 5.52288M1.00001 12.7541V9.06271M1.00001 9.06271H4.69143M1.00001 9.06271L3.35151 11.4164C4.10881 12.1737 5.05214 12.7183 6.08665 12.9955C7.12116 13.2726 8.2104 13.2726 9.24487 12.9953C10.2793 12.718 11.2226 12.1732 11.9798 11.4158C12.737 10.6584 13.2814 9.71496 13.5584 8.68041M14.3326 1.44916V5.1391" stroke="#92AAB7" stroke-width="2" stroke-linecap="round" stroke-linejoin="round"/>
</svg>
