<svg width="300" height="64" viewBox="0 0 300 64" fill="none" xmlns="http://www.w3.org/2000/svg">
<rect y="6" width="300" height="58" rx="29" fill="#223845"/>
<rect x="16" y="22" width="268" height="26" rx="13" fill="#091B26"/>
<path d="M28.176 0.999843L25 6.50009H33.084L29.908 0.999843C29.5231 0.333243 28.5609 0.333243 28.176 0.999843Z" fill="#223845"/>
<path d="M88.26 0.999843L85.084 6.50009H93.168L89.992 0.999843C89.6071 0.333243 88.6449 0.333243 88.26 0.999843Z" fill="#223845"/>
<path d="M148.344 0.999843L145.168 6.50009H153.252L150.076 0.999843C149.691 0.333243 148.729 0.333243 148.344 0.999843Z" fill="#223845"/>
<path d="M208.428 0.999843L205.252 6.50009H213.336L210.16 0.999843C209.775 0.333243 208.813 0.333243 208.428 0.999843Z" fill="#223845"/>
<path d="M268.512 0.999843L265.336 6.50009H273.42L270.244 0.999843C269.859 0.333243 268.897 0.333243 268.512 0.999843Z" fill="#223845"/>
</svg>
