<svg width="729" height="65" viewBox="0 0 729 65" fill="none" xmlns="http://www.w3.org/2000/svg">
<path d="M701.054 7.02051C716.582 7.57512 729 20.3365 729 36C729 52.0163 716.016 65 700 65H29C12.9837 65 0 52.0163 0 36C0 20.3368 12.4176 7.57563 27.9453 7.02051L31.134 1.49951C31.5189 0.832982 32.481 0.833027 32.8659 1.49959L36.042 7H193.958L197.134 1.49975C197.519 0.83315 198.481 0.833149 198.866 1.49975L202.042 7H359.958L363.134 1.49975C363.519 0.83315 364.481 0.833149 364.866 1.49975L368.042 7H525.958L529.134 1.49975C529.519 0.83315 530.481 0.833149 530.866 1.49975L534.042 7H692.958L696.134 1.49977C696.519 0.833167 697.481 0.833174 697.866 1.49978L701.054 7.02051Z" fill="#223845"/>
<rect x="16" y="23" width="697" height="26" rx="13" fill="#091B26"/>
</svg>
